Coordinates
version=1
nRows=14
nColumns=36
inDegrees=yes

Units are S.I. units (second, meters, Newtons, ...)
If the header above contains a line with 'inDegrees', this indicates whether rotational values are in degrees (yes) or radians (no).

endheader
time	pelvis_tilt	pelvis_list	pelvis_rotation	pelvis_tx	pelvis_ty	pelvis_tz	hip_flexion_r	hip_adduction_r	hip_rotation_r	knee_angle_r	knee_angle_r_beta	ankle_angle_r	subtalar_angle_r	mtp_angle_r	hip_flexion_l	hip_adduction_l	hip_rotation_l	knee_angle_l	knee_angle_l_beta	ankle_angle_l	subtalar_angle_l	mtp_angle_l	lumbar_extension	lumbar_bending	lumbar_rotation	arm_flex_r	arm_add_r	arm_rot_r	elbow_flex_r	pro_sup_r	arm_flex_l	arm_add_l	arm_rot_l	elbow_flex_l	pro_sup_l
      1.71666670	      0.32952235	      1.27309220	     -1.69635565	     -0.13590822	      1.24730680	      0.03480061	     -0.23499872	     -3.26793053	     -3.82913134	      2.66347727	      0.04648645	     14.09228994	      5.16109412	     -7.49999987	     -0.59742372	      0.98141132	    -11.25983485	      4.16748659	      0.07273636	     16.81553927	      9.95101342	     -7.49999987	      8.19168653	     -1.56793859	      3.84136002	    -32.43899580	    -32.29596270	     14.81011439	     96.76676541	     99.51234760	     25.26574988	      5.78203867	     32.15135197	    140.15717761	     77.64000974
      1.73333330	      0.31976555	      1.28309816	     -1.76713563	     -0.13457220	      1.24557462	      0.03547493	     -0.27113758	     -3.28183404	     -3.68674127	      2.55750302	      0.04463685	     14.02947070	      5.17399929	     -7.49999987	     -0.63827132	      0.99176916	    -11.32048816	      4.11573137	      0.07183306	     16.72661330	      9.94734108	     -7.49999987	      8.19340936	     -1.60297514	      3.82581515	    -32.32881739	    -32.36718058	     15.17973951	     96.58700470	     99.44961173	     25.11999153	      5.82282069	     32.26843217	    140.33097433	     77.81598728
      1.75000000	      0.26957708	      1.28116897	     -1.84383225	     -0.13507889	      1.24525872	      0.03547622	     -0.23853722	     -3.27429123	     -3.57128702	      2.53738622	      0.04428574	     13.84802331	      5.07101458	     -7.49999987	     -0.60979956	      0.96114482	    -11.41994967	      4.18441643	      0.07303184	     16.67996958	      9.89266084	     -7.49999987	      8.25287074	     -1.60187671	      3.77430174	    -32.22155880	    -32.54072615	     15.42526649	     96.55518138	     98.84937816	     25.13930925	      5.86538476	     32.26045238	    140.56346866	     77.47764418
      1.76666670	      0.20397899	      1.27021370	     -1.90841332	     -0.13704011	      1.24530746	      0.03514514	     -0.13722599	     -3.25249352	     -3.59576204	      2.54620559	      0.04443967	     13.95064833	      5.21967131	     -7.49999987	     -0.52549836	      0.96607238	    -11.35878870	      4.09033652	      0.07138984	     16.71613037	      9.96866922	     -7.49999987	      8.27565893	     -1.58889015	      3.75467560	    -32.19387346	    -32.60369127	     15.43429994	     96.58032522	     99.37779941	     25.19617191	      5.85510913	     32.29824266	    140.58003277	     77.73361909
      1.78333330	      0.13356955	      1.24230534	     -1.96223847	     -0.13743307	      1.24620893	      0.03535977	     -0.01213418	     -3.20977373	     -3.53642307	      2.54706232	      0.04445462	     13.83198811	      5.06127293	     -7.49999987	     -0.43871568	      0.96376891	    -11.19751228	      3.94304820	      0.06881917	     16.53875958	      9.73754639	     -7.49999987	      8.27738394	     -1.57647346	      3.63603947	    -31.95752944	    -32.75152715	     15.68317549	     96.57454880	     97.71310796	     25.24328147	      5.79668281	     32.46890544	    140.68722907	     76.38706331
      1.80000000	      0.16317544	      1.23147754	     -2.01421529	     -0.13510346	      1.24575419	      0.03588942	     -0.06603434	     -3.18458241	     -3.57758991	      2.53505447	      0.04424505	     13.69587751	      5.13967459	     -7.49999987	     -0.44935247	      0.88623351	    -11.65879276	      4.14067003	      0.07226833	     16.68447489	     10.31508475	     -7.49999987	      8.32278421	     -1.64267093	      3.50708083	    -31.53999042	    -32.88979145	     16.26243991	     96.32701927	     97.38668050	     25.30055448	      5.76608008	     32.51823351	    140.81416316	     76.58690997
      1.81666670	      0.05866748	      1.21573222	     -2.06748043	     -0.13629909	      1.24558389	      0.03527885	      0.10056507	     -3.17821527	     -3.71814786	      2.60980192	      0.04554964	     13.89899484	      5.42104212	     -7.49999987	     -0.28337362	      0.87162925	    -11.61015258	      4.19703727	      0.07325212	     16.78449810	     10.35174386	     -7.49999987	      8.36817530	     -1.57632584	      3.49017218	    -31.56732819	    -32.94704232	     16.10405451	     96.50619208	     98.40017622	     25.33389795	      5.73339807	     32.60522861	    141.00965456	     77.25487467
      1.83333330	      0.03605585	      1.20874903	     -2.01097421	     -0.13686683	      1.24820563	      0.03492194	      0.14851788	     -3.17578616	     -3.73430678	      2.57388080	      0.04492269	     13.64502120	      5.22680822	     -7.49999987	     -0.21602382	      0.87161963	    -11.44263614	      4.22216199	      0.07369063	     16.60144869	     10.04216149	     -7.49999987	      8.34933691	     -1.60152359	      3.29305846	    -31.35189172	    -32.83871336	     16.14576278	     96.30194242	     97.32317995	     25.31441616	      5.66737674	     32.73008184	    141.15901295	     76.55066134
      1.85000000	     -0.04135193	      1.20261775	     -2.05378704	     -0.13687128	      1.24796133	      0.03518196	      0.26490626	     -3.17009682	     -3.75584586	      2.55720034	      0.04463157	     13.50486058	      5.29011150	     -7.49999987	     -0.08536643	      0.85156908	    -11.69268343	      4.31177673	      0.07525470	     16.66349014	     10.42377619	     -7.49999987	      8.41848082	     -1.60014551	      2.96998558	    -30.65845204	    -33.10058506	     16.79640618	     95.98945182	     97.83188586	     25.06284759	      5.52967430	     32.70708168	    141.36770106	     77.16538913
      1.86666670	     -0.06903549	      1.18891210	     -2.03698780	     -0.13764367	      1.24825922	      0.03536946	      0.32808237	     -3.16267821	     -3.82048663	      2.56918815	      0.04484079	     13.24283062	      5.12095254	     -7.49999987	     -0.03630296	      0.85069921	    -11.47172841	      4.24818645	      0.07414484	     16.48068005	     10.11258379	     -7.49999987	      8.41544242	     -1.56200534	      2.92197151	    -30.53662545	    -33.04324647	     16.84858090	     95.79282390	     96.89515608	     25.02541945	      5.47149504	     32.77413762	    141.45024838	     76.40494266
      1.88333330	      0.07256863	      1.14719508	     -1.95819028	     -0.13590476	      1.24484990	      0.03571303	      0.08064974	     -3.10932966	     -3.85664519	      2.45676162	      0.04287858	     12.96559044	      4.93174671	     -7.49999987	     -0.17925932	      0.77809756	    -11.73098594	      4.32966992	      0.07556700	     16.56394360	     10.25736443	     -7.49999987	      8.30358493	     -1.57768690	      3.03031640	    -30.86755249	    -32.89406911	     16.51601253	     95.98464366	     96.89492618	     25.18884322	      5.56593791	     32.81032886	    141.63185600	     76.47285631
      1.90000000	     -0.01120913	      1.12244774	     -1.90234054	     -0.13574133	      1.24432700	      0.03572620	      0.16069317	     -3.08487827	     -4.08043602	      2.53160413	      0.04418483	     12.92358510	      4.96999714	     -7.49999987	     -0.08556471	      0.70558050	    -11.86133162	      4.46938854	      0.07800555	     16.62978559	     10.10024734	     -7.49999987	      8.38712500	     -1.50873664	      3.27221028	    -31.63714356	    -32.64878701	     15.56631557	     96.49717475	     99.29780705	     25.27207792	      5.62815456	     32.92824192	    141.93538990	     77.87262636
      1.91666670	      0.02726910	      1.14439118	     -1.84089038	     -0.13548310	      1.24324041	      0.03577944	      0.02112884	     -3.08577891	     -4.06770589	      2.47570575	      0.04320922	     12.79723547	      4.80441925	     -7.49999987	     -0.11213795	      0.64748879	    -12.07622930	      4.71867591	      0.08235643	     16.64411428	     10.05584556	     -7.49999987	      8.44137284	     -1.55080524	      3.54004896	    -32.06574593	    -32.54838749	     15.28817640	     96.77640646	     97.96592733	     25.50563739	      5.68419929	     32.92402683	    141.84218441	     76.95642620
      1.93333330	     -0.02682424	      1.13510250	     -1.74552617	     -0.13576281	      1.24393775	      0.03553800	      0.04737626	     -3.07241154	     -4.17801509	      2.45841073	      0.04290736	     12.80533066	      4.83975813	     -7.49999987	     -0.05490405	      0.59964820	    -12.11098001	      4.82888317	      0.08427991	     16.67627218	      9.83876678	     -7.49999987	      8.49988479	     -1.52529624	      3.69200916	    -32.68138270	    -32.32188427	     14.51927305	     97.21456464	     99.20723180	     25.60371795	      5.69808181	     32.91031056	    141.90990392	     77.33087563
